<svg width="567" height="419" viewBox="0 0 567 419" fill="none" xmlns="http://www.w3.org/2000/svg">
<path d="M111.825 188.483L113.954 186.681C126.731 175.867 145.684 176.728 157.429 188.656L158.642 189.888C171.583 203.031 170.763 224.365 156.851 236.475L154.524 238.501C140.172 250.996 118.152 248.279 107.266 232.671L106.251 231.215C96.8022 217.667 99.217 199.154 111.825 188.483Z" fill="url(#paint0_linear_21:2913)" stroke="url(#paint1_linear_21:2913)"/>
<path d="M1 417.274L33.9442 292.086C56.1795 207.592 122.519 141.821 207.202 120.315V120.315L219.024 109.246C231.653 97.4237 251.215 97.1877 264.126 108.702V108.702C266.712 111.009 268.191 114.31 268.191 117.775V120.315M268.191 120.315H250.765M268.191 120.315L278.627 130.75C283.864 135.988 284.382 144.306 279.835 150.152L279.211 150.955C278.213 152.237 276.679 152.987 275.054 152.987H262.25C250.951 152.987 240.813 159.93 236.728 170.465V170.465C232.666 180.94 236.693 192.82 246.287 198.666L261.512 207.944C268.982 212.496 270.103 222.956 263.918 229.141V229.141C259.754 233.304 253.926 235.517 248.053 235.098L228.593 233.708C220.953 233.162 213.419 235.739 207.713 240.848L202.204 245.78C179.253 266.331 163.717 293.873 158 324.145V324.145C153.057 350.321 150.569 376.901 150.569 403.539V417.274" stroke="#332F2E"/>
<path d="M565.15 418L532.206 292.812C509.971 208.318 443.631 142.547 358.949 121.041V121.041L347.126 109.972C334.497 98.1497 314.935 97.9138 302.024 109.428V109.428C299.438 111.735 297.959 115.036 297.959 118.501V121.041M297.959 121.041H315.385M297.959 121.041L287.523 131.477C282.286 136.714 281.768 145.032 286.316 150.878L286.94 151.681C287.937 152.963 289.471 153.713 291.096 153.713H303.9C315.199 153.713 325.337 160.656 329.422 171.191V171.191C333.484 181.666 329.457 193.546 319.863 199.392L304.638 208.67C297.168 213.222 296.048 223.682 302.233 229.867V229.867C306.396 234.03 312.224 236.244 318.097 235.824L333.27 234.74C343.356 234.02 353.089 238.605 358.956 246.841L387.734 287.242C411.724 320.92 422.281 362.338 417.34 403.39L415.581 418" stroke="#332F2E"/>
<path d="M21.1536 399.495L20.7963 399.303C13.4243 395.354 9.6753 386.903 11.6948 378.788L26.9395 317.526L37.7749 275.498L44.2965 256.619C47.6064 247.038 57.9664 241.858 67.6175 244.959L68.1107 245.117C71.2234 246.117 73.9791 247.999 76.0435 250.534C116.014 299.621 98.073 373.304 40.0095 398.52L36.329 400.118C31.4412 402.241 25.8509 402.011 21.1536 399.495Z" fill="url(#paint2_linear_21:2913)" stroke="url(#paint3_linear_21:2913)"/>
<path d="M384.867 234.735L384.368 239.556C383.935 243.751 380.763 247.145 376.607 247.861C369.958 249.007 366.64 256.571 370.299 262.239L382.646 281.364C393.891 298.783 402.469 317.784 408.098 337.738C413.063 355.343 415.581 373.548 415.581 391.84V418H565.876L534.656 298.926L524.3 262.291C523.263 258.624 521.925 255.05 520.299 251.605L514.732 239.812C503.54 216.103 487.904 194.761 468.671 176.942L459.349 168.305C455.379 164.627 450.077 162.735 444.676 163.068C436.725 163.559 429.843 168.768 427.212 176.287L427.01 176.863C426.652 177.886 426.383 178.937 426.205 180.005L425.026 187.078C424.185 192.126 419.818 195.825 414.701 195.825C408.545 195.825 403.719 201.11 404.276 207.24L404.484 209.527C405.026 215.492 401.283 221.01 395.541 222.711L394.624 222.983C389.292 224.563 385.439 229.203 384.867 234.735Z" fill="url(#paint4_linear_21:2913)" stroke="url(#paint5_linear_21:2913)"/>
<path d="M277.872 90.7068C277.872 90.7068 226.902 62.1638 226.902 27.5043C226.903 21.3784 229.026 15.442 232.909 10.7043C236.793 5.96653 242.197 2.71998 248.203 1.51657C254.21 0.313169 260.448 1.22719 265.857 4.10325C271.265 6.9793 275.511 11.6399 277.872 17.2925L277.872 17.2926C280.233 11.6399 284.479 6.97933 289.887 4.10327C295.296 1.2272 301.534 0.313173 307.541 1.51657C313.547 2.71997 318.951 5.96652 322.835 10.7043C326.718 15.442 328.841 21.3784 328.842 27.5043C328.842 62.1638 277.872 90.7068 277.872 90.7068Z" fill="url(#paint6_linear_21:2913)" stroke="url(#paint7_linear_21:2913)" stroke-width="2" stroke-linecap="round" stroke-linejoin="round"/>
<path d="M296.337 45.9834C298.689 45.9834 300.596 44.0769 300.596 41.7252C300.596 39.3734 298.689 37.4669 296.337 37.4669C293.986 37.4669 292.079 39.3734 292.079 41.7252C292.079 44.0769 293.986 45.9834 296.337 45.9834Z" stroke="white" stroke-width="2" stroke-linecap="round" stroke-linejoin="round"/>
<path d="M260.568 45.9834C262.92 45.9834 264.826 44.0769 264.826 41.7252C264.826 39.3734 262.92 37.4669 260.568 37.4669C258.216 37.4669 256.31 39.3734 256.31 41.7252C256.31 44.0769 258.216 45.9834 260.568 45.9834Z" stroke="white" stroke-width="2" stroke-linecap="round" stroke-linejoin="round"/>
<path d="M270.788 35.7636C273.14 35.7636 275.046 33.8571 275.046 31.5054C275.046 29.1536 273.14 27.2471 270.788 27.2471C268.436 27.2471 266.53 29.1536 266.53 31.5054C266.53 33.8571 268.436 35.7636 270.788 35.7636Z" stroke="white" stroke-width="2" stroke-linecap="round" stroke-linejoin="round"/>
<path d="M286.117 35.7636C288.469 35.7636 290.376 33.8571 290.376 31.5054C290.376 29.1536 288.469 27.2471 286.117 27.2471C283.766 27.2471 281.859 29.1536 281.859 31.5054C281.859 33.8571 283.766 35.7636 286.117 35.7636Z" stroke="white" stroke-width="2" stroke-linecap="round" stroke-linejoin="round"/>
<path d="M290.213 51.9138C288.077 50.7272 286.495 48.7451 285.813 46.3985L285.813 46.3988C285.349 44.8051 284.382 43.4049 283.054 42.4086C281.727 41.4122 280.112 40.8735 278.453 40.8735C276.793 40.8735 275.178 41.4122 273.851 42.4086C272.524 43.4049 271.556 44.8051 271.093 46.3988L271.093 46.3985C270.41 48.7451 268.829 50.7272 266.692 51.9138C265.154 52.748 263.995 54.1423 263.456 55.8078C262.917 57.4733 263.04 59.2823 263.799 60.8596C264.558 62.437 265.895 63.6618 267.532 64.2803C269.17 64.8987 270.983 64.8632 272.595 64.1813C276.349 62.6421 280.557 62.6421 284.311 64.1813C285.923 64.864 287.736 64.8999 289.374 64.2817C291.012 63.6634 292.349 62.4384 293.109 60.8607C293.868 59.2829 293.99 57.4736 293.451 55.8078C292.912 54.142 291.753 52.7476 290.213 51.9138H290.213Z" stroke="white" stroke-width="2" stroke-linecap="round" stroke-linejoin="round"/>
<defs>
<linearGradient id="paint0_linear_21:2913" x1="89.5793" y1="167.509" x2="202.164" y2="210.81" gradientUnits="userSpaceOnUse">
<stop stop-color="#FF9F1C"/>
<stop offset="1" stop-color="#FF6B35"/>
</linearGradient>
<linearGradient id="paint1_linear_21:2913" x1="89.5793" y1="167.509" x2="202.164" y2="210.81" gradientUnits="userSpaceOnUse">
<stop stop-color="#FF9F1C"/>
<stop offset="1" stop-color="#FF6B35"/>
</linearGradient>
<linearGradient id="paint2_linear_21:2913" x1="8.26074" y1="239.38" x2="190.761" y2="303.41" gradientUnits="userSpaceOnUse">
<stop stop-color="#FF9F1C"/>
<stop offset="1" stop-color="#FF6B35"/>
</linearGradient>
<linearGradient id="paint3_linear_21:2913" x1="8.26074" y1="239.38" x2="190.761" y2="303.41" gradientUnits="userSpaceOnUse">
<stop stop-color="#FF9F1C"/>
<stop offset="1" stop-color="#FF6B35"/>
</linearGradient>
<linearGradient id="paint4_linear_21:2913" x1="362.579" y1="162.546" x2="620.376" y2="242.688" gradientUnits="userSpaceOnUse">
<stop stop-color="#FF9F1C"/>
<stop offset="1" stop-color="#FF6B35"/>
</linearGradient>
<linearGradient id="paint5_linear_21:2913" x1="362.579" y1="162.546" x2="620.376" y2="242.688" gradientUnits="userSpaceOnUse">
<stop stop-color="#FF9F1C"/>
<stop offset="1" stop-color="#FF6B35"/>
</linearGradient>
<linearGradient id="paint6_linear_21:2913" x1="226.902" y1="1" x2="345.327" y2="53.568" gradientUnits="userSpaceOnUse">
<stop stop-color="#FF9F1C"/>
<stop offset="1" stop-color="#FF6B35"/>
</linearGradient>
<linearGradient id="paint7_linear_21:2913" x1="226.902" y1="1" x2="345.327" y2="53.568" gradientUnits="userSpaceOnUse">
<stop stop-color="#FF9F1C"/>
<stop offset="1" stop-color="#FF6B35"/>
</linearGradient>
</defs>
</svg>
