<svg width="177" height="156" viewBox="0 0 177 156" fill="none" xmlns="http://www.w3.org/2000/svg">
<path d="M49.9122 97.5178V104.674" stroke="black" stroke-width="2" stroke-linecap="round" stroke-linejoin="round"/>
<path d="M39.1774 85.5902C41.1536 85.5902 42.7557 83.9882 42.7557 82.0119C42.7557 80.0357 41.1536 78.4337 39.1774 78.4337C37.2012 78.4337 35.5991 80.0357 35.5991 82.0119C35.5991 83.9882 37.2012 85.5902 39.1774 85.5902Z" fill="black"/>
<path d="M60.647 85.5902C62.6232 85.5902 64.2253 83.9882 64.2253 82.0119C64.2253 80.0357 62.6232 78.4337 60.647 78.4337C58.6708 78.4337 57.0687 80.0357 57.0687 82.0119C57.0687 83.9882 58.6708 85.5902 60.647 85.5902Z" fill="black"/>
<path d="M54.6832 92.7468L49.9121 97.5178L45.1411 92.7468" stroke="black" stroke-width="2" stroke-linecap="round" stroke-linejoin="round"/>
<path d="M57.0687 54.5784L73.6963 50.4215C74.0118 50.3426 74.3401 50.3291 74.6611 50.3818C74.982 50.4344 75.2888 50.5522 75.5626 50.7277C75.8364 50.9033 76.0714 51.133 76.2531 51.4027C76.4349 51.6725 76.5596 51.9765 76.6195 52.2962L81.5153 78.4074C81.9752 80.86 78.8366 82.283 77.2949 80.3208L57.0687 54.5784Z" stroke="black" stroke-width="2" stroke-linecap="round" stroke-linejoin="round"/>
<path d="M42.7555 54.5784L26.1279 50.4215C25.8124 50.3426 25.4841 50.3291 25.1631 50.3818C24.8421 50.4344 24.5354 50.5522 24.2616 50.7277C23.9878 50.9033 23.7528 51.133 23.571 51.4027C23.3893 51.6725 23.2646 51.9765 23.2047 52.2962L18.3088 78.4074C17.849 80.86 20.9876 82.283 22.5293 80.3208L42.7555 54.5784Z" stroke="black" stroke-width="2" stroke-linecap="round" stroke-linejoin="round"/>
<path d="M42.7556 54.5785H57.0687" stroke="black" stroke-width="2" stroke-linecap="round" stroke-linejoin="round"/>
<path d="M73.7673 75.8315V95.1325C73.7673 97.6632 72.762 100.09 70.9725 101.88C69.183 103.669 66.756 104.675 64.2253 104.675H35.5991C33.0684 104.675 30.6413 103.669 28.8518 101.88C27.0623 100.09 26.057 97.6632 26.057 95.1325V75.8315" stroke="black" stroke-width="2" stroke-linecap="round" stroke-linejoin="round"/>
<rect x="0.5" y="19.7938" width="176" height="118.118" stroke="black"/>
<path d="M100.777 48.4968H158.973" stroke="black" stroke-width="2" stroke-linecap="round" stroke-linejoin="round"/>
<path d="M100.777 77.5948H158.973" stroke="black" stroke-width="2" stroke-linecap="round" stroke-linejoin="round"/>
<path d="M100.663 106.536L159.384 106.536" stroke="black" stroke-width="2" stroke-linecap="round" stroke-linejoin="round"/>
</svg>
