<svg width="124" height="124" viewBox="0 0 124 124" fill="none" xmlns="http://www.w3.org/2000/svg">
<path d="M62 93V104.625" stroke="black" stroke-width="2" stroke-linecap="round" stroke-linejoin="round"/>
<path d="M44.5625 73.625C47.7727 73.625 50.375 71.0227 50.375 67.8125C50.375 64.6023 47.7727 62 44.5625 62C41.3523 62 38.75 64.6023 38.75 67.8125C38.75 71.0227 41.3523 73.625 44.5625 73.625Z" fill="black"/>
<path d="M79.4375 73.625C82.6477 73.625 85.25 71.0227 85.25 67.8125C85.25 64.6023 82.6477 62 79.4375 62C76.2273 62 73.625 64.6023 73.625 67.8125C73.625 71.0227 76.2273 73.625 79.4375 73.625Z" fill="black"/>
<path d="M69.75 85.25L62 93L54.25 85.25" stroke="black" stroke-width="2" stroke-linecap="round" stroke-linejoin="round"/>
<path d="M73.625 23.2498L100.635 16.4974C101.147 16.3693 101.68 16.3473 102.202 16.4328C102.723 16.5184 103.222 16.7096 103.666 16.9948C104.111 17.28 104.493 17.6532 104.788 18.0913C105.083 18.5294 105.286 19.0233 105.383 19.5426L113.336 61.9573C114.083 65.9413 108.984 68.2528 106.48 65.0655L73.625 23.2498Z" stroke="black" stroke-width="2" stroke-linecap="round" stroke-linejoin="round"/>
<path d="M50.3747 23.2498L23.3651 16.4974C22.8526 16.3693 22.3193 16.3473 21.7979 16.4328C21.2765 16.5184 20.7782 16.7096 20.3335 16.9948C19.8887 17.28 19.507 17.6532 19.2118 18.0913C18.9165 18.5294 18.714 19.0233 18.6167 19.5426L10.6639 61.9573C9.91693 65.9413 15.0152 68.2528 17.5195 65.0655L50.3747 23.2498Z" stroke="black" stroke-width="2" stroke-linecap="round" stroke-linejoin="round"/>
<path d="M50.375 23.25H73.625" stroke="black" stroke-width="2" stroke-linecap="round" stroke-linejoin="round"/>
<path d="M100.75 57.7731V89.1253C100.75 93.2362 99.117 97.1787 96.2102 100.085C93.3033 102.992 89.3609 104.625 85.25 104.625H38.75C34.6391 104.625 30.6967 102.992 27.7898 100.085C24.883 97.1787 23.25 93.2362 23.25 89.1253V57.7731" stroke="black" stroke-width="2" stroke-linecap="round" stroke-linejoin="round"/>
</svg>
